<?xml version="1.0" encoding="UTF-8" standalone="no"?>
<!-- Created with Inkscape (http://www.inkscape.org/) -->

<svg
   version="1.1"
   id="svg1"
   width="76"
   height="83"
   viewBox="0 0 76 83"
   sodipodi:docname="payment-individual.png"
   inkscape:export-filename="payment-individual.svg"
   inkscape:export-xdpi="300"
   inkscape:export-ydpi="300"
   xmlns:inkscape="http://www.inkscape.org/namespaces/inkscape"
   xmlns:sodipodi="http://sodipodi.sourceforge.net/DTD/sodipodi-0.dtd"
   xmlns="http://www.w3.org/2000/svg"
   xmlns:svg="http://www.w3.org/2000/svg">
  <defs
     id="defs1" />
  <sodipodi:namedview
     id="namedview1"
     pagecolor="#ffffff"
     bordercolor="#000000"
     borderopacity="0.25"
     inkscape:showpageshadow="2"
     inkscape:pageopacity="0.0"
     inkscape:pagecheckerboard="0"
     inkscape:deskcolor="#d1d1d1" />
  <g
     inkscape:groupmode="layer"
     inkscape:label="Image"
     id="g1">
    <path
       style="fill:#000000"
       d="M 6.0931788,71.013643 C 5.3397768,70.260241 4.4658944,65.756502 4.4658944,60.173624 c 0,-7.378074 0.4071837,-7.61609 -1.2522523,-9.72572 -3.88101,-4.933906 -2.36278332,-18.535693 2.6241457,-21.204617 1.05815,-0.566304 4.4859842,-1.350107 7.7479702,-1.350107 4.5233,0 6.675536,0.822182 8.725225,2.434467 1.478136,1.162703 2.441581,2.359944 2.140989,2.660536 C 24.15138,33.288776 23.020943,32.734255 21.93989,31.755916 17.752375,27.966267 6.7253263,28.70607 4.4101623,33.031994 c -0.517379,0.966731 -1.8015146,4.37546 -2.0782295,7.326492 -0.5145867,5.48782 0.627037,9.160832 8.2162832,9.835529 l 5.844963,0.519628 0.286212,9.75 c 0.26203,8.926241 0.452129,9.75 2.25,9.75 1.766254,0 1.963788,-0.710056 1.963788,-7.059017 0,-4.451367 0.369407,-6.830711 1,-6.440983 0.55,0.339919 0.679537,3.472975 0.679537,6.70123 0,5.855029 -1.211011,8.79877 -4.050966,8.79877 -2.800746,0 -3.308108,-2.127892 -3.308108,-10.772716 0,-5.2 -0.729554,-9.227284 -1.320463,-9.227284 -0.587571,0 -1,3.47619 -1,8.428571 0,6.329005 -0.391445,8.820017 -1.571429,10 C 9.4427368,72.521228 7.7229358,72.6434 6.0931788,71.013643 Z M 11.216218,60.95239 10.971045,52.213643 H 8.4321118 c -2.490406,0 -2.538933,0.141785 -2.538933,7.418213 0,8.581093 0.615782,10.801473 2.875827,10.369626 1.3239562,-0.25298 2.6470962,-1.924551 2.4472122,-9.049092 z m 43.926965,10.598972 c -0.87021,-0.351134 -1.19635,-2.833811 -1.07342,-8.171052 l 0.603874,-6.06435 0.680232,5.397683 c 0.770554,6.114407 0.284394,7 2.039314,7 1.85001,0 2.0103,-0.712454 2.13736,-9.5 l 0.13736,-9.5 5.7076,-0.519628 c 6.80181,-0.619246 8.197217,-2.589746 8.197217,-8.934804 0,-8.719106 -4.502507,-12.776485 -13.236697,-11.792016 -2.4882,0.280457 -5.40574,1.307884 -6.48342,2.283172 -1.07768,0.975288 -1.95942,1.279024 -1.95942,0.674968 0,-2.453633 4.187467,-4.745798 10.478967,-4.745798 5.68997,0 7.087344,0.839757 9.704774,3.457183 2.23126,2.231265 2.859609,3.94714 2.999439,7.25 0.30865,7.290409 -0.0204,9.024793 -2.14065,11.281652 -1.74654,1.859099 -2.04253,3.48757 -2.04253,11.237278 0,9.763862 -1.05117,12.061305 -4.95202,10.823224 -1.87329,-0.594562 -2.04798,-1.454591 -2.04798,-10.082619 0,-7.717877 -0.27269,-9.432612 -1.5,-9.432612 -1.2197,0 -1.5,1.644444 -1.5,8.8 0,10.208054 -1.185,12.379738 -5.75,10.537719 z m 14.53893,-10.598972 0.28893,-8.738747 h -2.53893 c -2.51546,0 -2.111646,0.183861 -2.111646,8.440154 0,8.697151 -0.04184,9.823243 2.523946,9.333163 1.23032,-0.234998 1.60817,-2.092627 1.8377,-9.03457 z m -21.78893,-5.599442 c 0,-0.735287 1.35,-2.597974 3,-4.139305 1.65,-1.541331 3,-3.071875 3,-3.40121 0,-0.329334 -7.29133,-0.59879 -16.20295,-0.59879 h -16.20295 l 3.905896,4 c 2.415702,2.473903 3.335616,4 2.411156,4 -0.822107,0 -3.483071,-2.025961 -5.913252,-4.502136 l -4.418513,-4.502136 4.068144,-4.463758 c 2.598939,-2.851678 6.225391,-5.53197 6.773081,-5.53197 0.54769,0 -0.991587,2.025 -3.420616,4.5 l -4.416416,4.5 h 17.41116 17.41115 l -3.88797,-3.981644 c -2.13838,-2.189903 -3.66508,-4.204534 -3.39266,-4.476956 0.27242,-0.272421 2.707,1.750142 5.41018,4.494585 l 4.91487,4.989897 -5.22516,5.225154 c -2.87383,2.873835 -5.22515,4.623556 -5.22515,3.888269 z M 9.0954725,21.827309 C 5.7448982,19.0344 5.2207391,14.106929 8.2265298,10.612489 14.141697,3.7356965 23.265147,10.042989 20.771845,18.99427 19.309243,24.245205 12.304495,24.502226 9.0954725,21.827309 Z M 18.643179,19.46778 C 21.427003,15.823428 18.508595,9.2136422 14.115685,9.2136422 c -5.7856502,0 -8.406765,8.2974318 -3.758864,11.5847878 2.591295,1.832766 6.393139,1.147795 8.286358,-1.33065 z m 38.288954,1.557302 c -3.68186,-3.952013 -2.5018,-10.292905 2.29054,-12.3079331 5.6986,-2.3960845 10.67051,0.9850378 10.67051,7.2564391 0,6.290915 -8.66139,9.66664 -12.96105,5.051494 z m 9.5065,-1.265984 c 1.35,-1.35 2.240908,-3.063634 2.240908,-3.938634 0,-2.265711 -1.432588,-6.6068218 -6.634087,-6.1795374 -2.775102,0.2279647 -6.04545,2.9329364 -6.04545,5.8933154 0,2.52021 3.264221,6.038474 5.825741,6.038474 0.77583,0 3.262888,-0.463618 4.612888,-1.813618 z"
       id="path1"
       sodipodi:nodetypes="ssssssssssscsssssssssssscsssssscssscsssssssscssssssscsssssssscssscssscccssscssssssssssssssssssss" />
  </g>
</svg>
