<?xml version="1.0" encoding="UTF-8" standalone="no"?>
<!-- Created with Inkscape (http://www.inkscape.org/) -->

<svg
   version="1.1"
   id="svg1"
   width="68"
   height="79"
   viewBox="0 0 68 79"
   sodipodi:docname="payment-time.png"
   xmlns:inkscape="http://www.inkscape.org/namespaces/inkscape"
   xmlns:sodipodi="http://sodipodi.sourceforge.net/DTD/sodipodi-0.dtd"
   xmlns="http://www.w3.org/2000/svg"
   xmlns:svg="http://www.w3.org/2000/svg">
  <defs
     id="defs1" />
  <sodipodi:namedview
     id="namedview1"
     pagecolor="#ffffff"
     bordercolor="#000000"
     borderopacity="0.25"
     inkscape:showpageshadow="2"
     inkscape:pageopacity="0.0"
     inkscape:pagecheckerboard="0"
     inkscape:deskcolor="#d1d1d1" />
  <g
     inkscape:groupmode="layer"
     inkscape:label="Image"
     id="g1">
    <path
       style="fill:#000000;stroke-width:0.997531"
       d="M 21.75911,68.850488 C 9.8772562,64.114759 2.8628167,54.670047 2.4047616,41.995469 1.3637547,13.190369 22.372908,8.5717994 32.378862,8.6345255 c 5.636139,0.035332 10.279287,0.6662331 14.223339,2.5224025 23.307016,10.968863 24.230874,43.816784 1.414606,56.09312 -7.109713,3.825394 -18.875966,4.542563 -26.257697,1.60044 z M 47.131748,65.828031 C 64.793915,57.296261 68.731973,33.359687 55.01644,19.24893 52.717099,16.883332 48.564448,13.111179 45.377107,12.273957 37.15304,10.113733 38.902078,10.290203 31.743783,10.243973 26.822162,10.212188 21.069145,11.753535 16.690032,14.13122 11.373649,17.017805 9.0592237,21.059104 6.2041115,26.446103 c -3.5567907,6.710918 -3.1870622,19.46884 0.085961,26.517752 3.6178521,7.791553 11.5742885,13.51928 20.4922765,15.823639 5.057859,1.306923 14.752095,-0.255669 20.349399,-2.959463 z M 37.865862,43.751718 32.097022,39.728112 V 29.59246 c 0,-8.107425 0.450741,-8.595901 1.003277,-8.933487 0.642592,-0.392608 0.394393,11.153549 0.400013,17.384758 l 0.620767,1.45978 7.846995,5.139437 c 3.306034,2.105676 4.174819,2.691592 4.174819,2.90429 0,1.211827 -3.204753,-0.257747 -8.277031,-3.79552 z"
       id="path1"
       sodipodi:nodetypes="sssssssssssssssscsscccss" />
  </g>
</svg>
