
<svg version="1.0" xmlns="http://www.w3.org/2000/svg"
 width="56" height="56" viewBox="0 0 56 56"
 >
<g transform="translate(0,56) scale(0.1,-0.1)"
fill="#000000" stroke="none">
<path d="M162 514 c-93 -46 -142 -127 -142 -234 0 -152 108 -260 260 -260 152
0 259 108 260 261 0 151 -108 258 -261 259 -50 0 -77 -6 -117 -26z m192 -16
c54 -16 128 -90 144 -144 27 -91 8 -169 -58 -234 -93 -94 -227 -94 -320 0 -94
93 -94 226 0 320 65 66 143 85 234 58z"/>
<path d="M250 355 l-75 -75 77 -77 c59 -59 80 -75 89 -66 9 9 -3 28 -51 77
l-63 66 62 65 c54 56 69 85 43 85 -4 0 -41 -34 -82 -75z"/>
</g>
</svg>
