<svg version="1.0" xmlns="http://www.w3.org/2000/svg"
 width="56" height="56" viewBox="0 0 56 56"
>
<g transform="translate(0,56) scale(0.1,-0.1)"
fill="#000000" stroke="none">
<path d="M184 524 c-50 -18 -114 -78 -139 -130 -10 -22 -21 -64 -23 -96 -18
-240 272 -373 442 -202 126 125 90 342 -69 419 -52 25 -156 29 -211 9z m204
-45 c55 -27 97 -85 113 -153 35 -157 -110 -302 -266 -267 -133 30 -208 156
-171 286 41 138 189 199 324 134z"/>
<path d="M212 408 c-10 -10 0 -24 45 -70 l57 -58 -56 -57 c-44 -44 -55 -62
-48 -73 8 -12 23 -1 82 58 l73 72 -70 70 c-56 56 -73 68 -83 58z"/>
</g>
</svg>
